<svg width="539" height="176" viewBox="0 0 539 176" fill="none" xmlns="http://www.w3.org/2000/svg">
<g clip-path="url(#clip0_401_69)">
<mask id="mask0_401_69" style="mask-type:luminance" maskUnits="userSpaceOnUse" x="0" y="0" width="539" height="176">
<path d="M539 0H0V175.51H539V0Z" fill="white"/>
</mask>
<g mask="url(#mask0_401_69)">
<path d="M176 32.11L182.03 36.06C188.06 40.01 200.13 47.91 212.2 50.55C224.27 53.09 236.33 50.62 248.4 41.32C260.47 32.11 272.53 16.31 284.6 18.95C296.67 21.49 308.73 42.72 320.8 54.5C332.87 66.42 344.93 68.89 357 70.3C369.07 71.61 381.13 71.61 393.2 71.61C405.27 71.61 417.33 71.61 429.4 63.71C441.47 55.81 453.53 40.01 465.6 38.7C477.67 37.29 489.73 50.62 501.8 54.5C513.87 58.52 525.93 53.09 531.97 50.55L538 47.91V79.51H176V32.11Z" fill="#0D47A1"/>
<path d="M-0.900024 63.11L10.78 65.69C22.46 68.47 45.83 73.34 69.2 57.89C92.57 42.15 115.93 6.06997 139.3 0.709975C162.67 -4.65003 186.03 21.67 209.4 37.13C232.77 52.88 256.13 57.75 279.5 65.7C302.87 73.35 326.23 84.08 349.6 78.72C372.97 73.36 396.33 52.88 419.7 57.9C443.07 63.12 466.43 94.32 489.8 104.7C513.17 115.28 536.53 104.55 559.9 104.7C583.27 104.55 606.63 115.28 630 107.33C653.37 99.68 676.73 73.35 688.42 60.53L700.1 47.51V125.51H-0.900024V63.11Z" fill="#FFBD59"/>
<path d="M-222 136.31L-207.32 116.71C-192.64 97.11 -163.27 57.91 -133.9 64.46C-104.53 70.77 -75.17 123.44 -45.8 129.75C-16.43 136.3 12.93 97.1 42.3 84.06C71.67 70.77 101.03 84.24 130.4 70.95C159.77 57.9 189.13 18.7 218.5 15.46C247.87 11.97 277.23 45.04 306.6 70.95C335.97 97.1 365.33 116.7 394.7 106.9C424.07 97.1 453.43 57.9 482.8 51.35C512.17 45.04 541.53 70.77 570.9 87.3C600.27 103.84 629.63 109.96 644.32 113.45L659 116.7V175.5H-222V136.3V136.31Z" fill="white"/>
</g>
</g>
<defs>
<clipPath id="clip0_401_69">
<rect width="539" height="175.51" fill="white"/>
</clipPath>
</defs>
</svg>
